<svg width="34" height="45" viewBox="0 0 34 45" fill="none" xmlns="http://www.w3.org/2000/svg">
<g clip-path="url(#clip0_18_214)">
<path d="M3.44578 0.0055542H30.7315C30.7514 0.025398 30.7713 0.0537497 30.794 0.0622541C32.9772 0.629219 33.9964 1.96158 33.9964 4.21526V41.1105C33.9964 41.6378 34.0276 42.1679 33.9765 42.6895C33.9458 43.0971 33.85 43.4971 33.6926 43.8745C33.5199 44.3051 33.187 44.6525 32.7637 44.8437C32.3404 45.035 31.8594 45.0554 31.4214 44.9007C30.9256 44.7292 30.4664 44.4667 30.0672 44.1268C26.2572 40.9149 22.47 37.6775 18.6714 34.4543C17.6522 33.5869 16.4967 33.5869 15.486 34.4543C12.647 36.8488 9.81841 39.2461 7.00022 41.6463C5.91572 42.5648 4.85677 43.5144 3.73252 44.3847C2.137 45.6235 0.379648 44.9517 0.0418053 43.0155C0.0101106 42.813 -0.00319203 42.6081 0.00205934 42.4032C0.00205934 29.5765 0.00205934 16.749 0.00205934 3.92044C-0.0188474 3.30665 0.119728 2.69792 0.4043 2.15346C0.688872 1.609 1.10975 1.14735 1.62597 0.813472C2.16823 0.44778 2.83539 0.266358 3.44578 0.0055542Z" fill="#FFDF34"/>
<path d="M4.84 16V15.064C5.6 14.52 6.236 14.04 6.748 13.624C7.268 13.208 7.684 12.824 7.996 12.472C8.308 12.12 8.532 11.788 8.668 11.476C8.812 11.156 8.884 10.832 8.884 10.504C8.884 10.08 8.752 9.736 8.488 9.472C8.224 9.208 7.856 9.076 7.384 9.076C6.888 9.076 6.492 9.244 6.196 9.58C5.908 9.908 5.744 10.36 5.704 10.936L4.588 10.42C4.644 9.916 4.792 9.48 5.032 9.112C5.272 8.744 5.596 8.46 6.004 8.26C6.42 8.06 6.9 7.96 7.444 7.96C7.892 7.96 8.284 8.024 8.62 8.152C8.964 8.28 9.252 8.46 9.484 8.692C9.716 8.916 9.892 9.18 10.012 9.484C10.14 9.788 10.204 10.112 10.204 10.456C10.204 10.96 10.08 11.448 9.832 11.92C9.584 12.384 9.192 12.86 8.656 13.348C8.12 13.836 7.416 14.36 6.544 14.92V14.944C6.64 14.928 6.772 14.92 6.94 14.92C7.108 14.912 7.276 14.908 7.444 14.908C7.612 14.9 7.748 14.896 7.852 14.896H10.348V16H4.84ZM14.811 16.12C13.859 16.12 13.111 15.776 12.567 15.088C12.031 14.392 11.763 13.376 11.763 12.04C11.763 10.704 12.031 9.692 12.567 9.004C13.111 8.308 13.859 7.96 14.811 7.96C15.771 7.96 16.519 8.308 17.055 9.004C17.599 9.692 17.871 10.704 17.871 12.04C17.871 13.376 17.599 14.392 17.055 15.088C16.519 15.776 15.771 16.12 14.811 16.12ZM14.811 15.028C15.195 15.028 15.515 14.92 15.771 14.704C16.035 14.48 16.231 14.148 16.359 13.708C16.495 13.26 16.563 12.704 16.563 12.04C16.563 11.376 16.495 10.824 16.359 10.384C16.231 9.936 16.035 9.604 15.771 9.388C15.515 9.164 15.195 9.052 14.811 9.052C14.427 9.052 14.103 9.164 13.839 9.388C13.583 9.604 13.391 9.936 13.263 10.384C13.135 10.824 13.071 11.376 13.071 12.04C13.071 12.704 13.135 13.26 13.263 13.708C13.391 14.148 13.583 14.48 13.839 14.704C14.103 14.92 14.427 15.028 14.811 15.028ZM20.7141 16L25.8981 8.08H27.0021L21.8301 16H20.7141ZM21.0261 7.96C21.4341 7.96 21.7861 8.052 22.0821 8.236C22.3861 8.42 22.6181 8.676 22.7781 9.004C22.9461 9.332 23.0301 9.72 23.0301 10.168C23.0301 10.608 22.9461 10.996 22.7781 11.332C22.6181 11.66 22.3861 11.916 22.0821 12.1C21.7861 12.284 21.4341 12.376 21.0261 12.376C20.6261 12.376 20.2741 12.284 19.9701 12.1C19.6661 11.916 19.4301 11.66 19.2621 11.332C19.1021 10.996 19.0221 10.608 19.0221 10.168C19.0221 9.72 19.1021 9.332 19.2621 9.004C19.4301 8.676 19.6661 8.42 19.9701 8.236C20.2741 8.052 20.6261 7.96 21.0261 7.96ZM21.0261 8.896C20.8261 8.896 20.6541 8.948 20.5101 9.052C20.3661 9.148 20.2581 9.292 20.1861 9.484C20.1141 9.668 20.0781 9.896 20.0781 10.168C20.0781 10.432 20.1141 10.66 20.1861 10.852C20.2581 11.044 20.3661 11.188 20.5101 11.284C20.6541 11.38 20.8261 11.428 21.0261 11.428C21.2341 11.428 21.4101 11.38 21.5541 11.284C21.6981 11.188 21.8061 11.044 21.8781 10.852C21.9501 10.66 21.9861 10.432 21.9861 10.168C21.9861 9.896 21.9501 9.668 21.8781 9.484C21.8061 9.292 21.6981 9.148 21.5541 9.052C21.4101 8.948 21.2341 8.896 21.0261 8.896ZM26.6901 11.704C27.0981 11.704 27.4501 11.796 27.7461 11.98C28.0501 12.164 28.2821 12.424 28.4421 12.76C28.6101 13.088 28.6941 13.472 28.6941 13.912C28.6941 14.36 28.6101 14.748 28.4421 15.076C28.2821 15.404 28.0501 15.66 27.7461 15.844C27.4501 16.028 27.0981 16.12 26.6901 16.12C26.2901 16.12 25.9381 16.028 25.6341 15.844C25.3301 15.66 25.0941 15.404 24.9261 15.076C24.7661 14.748 24.6861 14.36 24.6861 13.912C24.6861 13.472 24.7661 13.088 24.9261 12.76C25.0941 12.424 25.3301 12.164 25.6341 11.98C25.9381 11.796 26.2901 11.704 26.6901 11.704ZM26.6901 12.652C26.4901 12.652 26.3181 12.7 26.1741 12.796C26.0301 12.892 25.9221 13.036 25.8501 13.228C25.7781 13.412 25.7421 13.64 25.7421 13.912C25.7421 14.176 25.7781 14.404 25.8501 14.596C25.9221 14.788 26.0301 14.936 26.1741 15.04C26.3181 15.136 26.4901 15.184 26.6901 15.184C26.8981 15.184 27.0741 15.136 27.2181 15.04C27.3621 14.936 27.4701 14.788 27.5421 14.596C27.6141 14.404 27.6501 14.176 27.6501 13.912C27.6501 13.648 27.6141 13.42 27.5421 13.228C27.4701 13.036 27.3621 12.892 27.2181 12.796C27.0741 12.7 26.8981 12.652 26.6901 12.652ZM8.464 21.96C9.232 21.96 9.896 22.124 10.456 22.452C11.016 22.78 11.448 23.248 11.752 23.856C12.056 24.464 12.208 25.192 12.208 26.04C12.208 26.888 12.056 27.616 11.752 28.224C11.448 28.832 11.016 29.3 10.456 29.628C9.896 29.956 9.232 30.12 8.464 30.12C7.704 30.12 7.044 29.956 6.484 29.628C5.924 29.3 5.492 28.832 5.188 28.224C4.884 27.616 4.732 26.888 4.732 26.04C4.732 25.192 4.884 24.464 5.188 23.856C5.492 23.248 5.924 22.78 6.484 22.452C7.044 22.124 7.704 21.96 8.464 21.96ZM8.464 23.076C7.968 23.076 7.54 23.192 7.18 23.424C6.828 23.656 6.556 23.992 6.364 24.432C6.172 24.872 6.076 25.408 6.076 26.04C6.076 26.664 6.172 27.2 6.364 27.648C6.556 28.088 6.828 28.424 7.18 28.656C7.54 28.888 7.968 29.004 8.464 29.004C8.968 29.004 9.396 28.888 9.748 28.656C10.108 28.424 10.384 28.088 10.576 27.648C10.768 27.2 10.864 26.664 10.864 26.04C10.864 25.408 10.768 24.872 10.576 24.432C10.384 23.992 10.108 23.656 9.748 23.424C9.396 23.192 8.968 23.076 8.464 23.076ZM19.8414 23.184H15.4014V25.488H18.8814V26.592H15.4014V30H14.1174V22.08H19.8414V23.184ZM27.1773 23.184H22.7373V25.488H26.2173V26.592H22.7373V30H21.4533V22.08H27.1773V23.184Z" fill="black"/>
</g>
<defs>
<clipPath id="clip0_18_214">
<rect width="34" height="45" fill="white"/>
</clipPath>
</defs>
</svg>
