<svg width="20" height="20" viewBox="0 0 16 16" fill="none" xmlns="http://www.w3.org/2000/svg">
<path d="M7.99996 8C9.84091 8 11.3333 6.50761 11.3333 4.66667C11.3333 2.82572 9.84091 1.33333 7.99996 1.33333C6.15901 1.33333 4.66663 2.82572 4.66663 4.66667C4.66663 6.50761 6.15901 8 7.99996 8Z" stroke="#292D32" stroke-linecap="round" stroke-linejoin="round"/>
<path d="M2.27332 14.6667C2.27332 12.0867 4.83998 10 7.99998 10C8.63998 10 9.25999 10.0867 9.83999 10.2467" stroke="#292D32" stroke-linecap="round" stroke-linejoin="round"/>
<path d="M14.6667 12C14.6667 12.5 14.5267 12.9733 14.28 13.3733C14.14 13.6133 13.96 13.8267 13.7534 14C13.2867 14.42 12.6734 14.6667 12 14.6667C11.0267 14.6667 10.18 14.1467 9.72003 13.3733C9.47337 12.9733 9.33337 12.5 9.33337 12C9.33337 11.16 9.72004 10.4067 10.3334 9.92C10.7934 9.55334 11.3734 9.33333 12 9.33333C13.4734 9.33333 14.6667 10.5267 14.6667 12Z" stroke="#292D32" stroke-miterlimit="10" stroke-linecap="round" stroke-linejoin="round"/>
<path d="M10.9601 12L11.6201 12.66L13.0401 11.3467" stroke="#292D32" stroke-linecap="round" stroke-linejoin="round"/>
</svg>
